<svg width="48" height="48" viewBox="0 0 48 48" fill="none" xmlns="http://www.w3.org/2000/svg">
<rect width="48" height="48" rx="24" fill="#292929"/>
<path fill-rule="evenodd" clip-rule="evenodd" d="M29.7007 27.1956C30.0947 27.5826 30.1004 28.2158 29.7134 28.6098L24.7134 33.7007C24.5254 33.8922 24.2683 34 24 34C23.7317 34 23.4746 33.8922 23.2866 33.7007L18.2866 28.6098C17.8996 28.2158 17.9053 27.5826 18.2993 27.1956C18.6933 26.8087 19.3265 26.8144 19.7134 27.2084L23 30.5547L23 15C23 14.4477 23.4477 14 24 14C24.5523 14 25 14.4477 25 15L25 30.5547L28.2866 27.2084C28.6735 26.8144 29.3067 26.8087 29.7007 27.1956Z" fill="white"/>
</svg>
