<svg width="20" height="20" viewBox="0 0 20 20" fill="none" xmlns="http://www.w3.org/2000/svg">
<path d="M17.4999 12.3825C17.4865 12.7953 17.4807 13.1869 17.427 13.5766C17.4194 13.6287 17.3944 13.6576 17.358 13.6846C16.848 14.0665 16.3036 14.3945 15.7342 14.6819C15.0804 15.0137 14.4075 15.2973 13.7154 15.5307C13.654 15.5519 13.6157 15.55 13.5716 15.4921C13.2802 15.1159 13.0463 14.7031 12.8354 14.2787C12.8162 14.2402 12.8143 14.2228 12.8661 14.2074C13.2783 14.0897 13.6483 13.8814 14.0202 13.6769C14.0758 13.646 14.0796 13.6267 14.0279 13.5862C13.9435 13.5226 13.8745 13.4203 13.7825 13.3933C13.6905 13.3682 13.6023 13.4685 13.5102 13.511C12.8335 13.8254 12.1184 14.0067 11.3841 14.1167C10.8128 14.2035 10.2376 14.2614 9.65864 14.2267C8.5716 14.1591 7.50565 13.9817 6.50489 13.5187C6.43012 13.484 6.35535 13.4454 6.28441 13.4049C6.2384 13.3798 6.20581 13.3779 6.16555 13.4145C6.09845 13.4782 6.02751 13.538 5.95466 13.5959C5.91632 13.6267 5.9144 13.646 5.96041 13.6711C6.33618 13.8756 6.70811 14.0878 7.12414 14.2054C7.17973 14.2209 7.17973 14.2382 7.15865 14.2826C6.94392 14.7108 6.71003 15.1256 6.41286 15.5017C6.38027 15.5442 6.35343 15.5557 6.30167 15.5384C5.05167 15.1082 3.86302 14.5565 2.77599 13.7926C2.61878 13.6827 2.55551 13.5611 2.54017 13.3721C2.46732 12.5368 2.49608 11.7054 2.59961 10.8759C2.7549 9.64136 3.08465 8.45694 3.58312 7.32075C3.91479 6.56264 4.31548 5.84504 4.78327 5.16603C4.81394 5.12166 4.8542 5.09465 4.90213 5.07344C5.57698 4.76286 6.28633 4.55067 7.00144 4.36355C7.25642 4.29604 7.51524 4.2401 7.77214 4.17451C7.84499 4.15715 7.88909 4.17065 7.92552 4.2401C8.04246 4.46194 8.16324 4.67991 8.25719 4.9114C8.27061 4.94612 8.27828 4.98084 8.33579 4.9712C9.00297 4.85931 9.67589 4.8516 10.3488 4.86124C10.7821 4.86896 11.2154 4.89597 11.6429 4.96734C11.6966 4.97698 11.7158 4.96155 11.733 4.91526C11.827 4.67991 11.9477 4.45615 12.0685 4.23431C12.1011 4.17644 12.1375 4.15329 12.2046 4.16872C13.1306 4.38285 14.049 4.6259 14.929 4.99435C15.0862 5.05993 15.2069 5.15253 15.3047 5.29913C16.2729 6.7594 16.9324 8.34699 17.266 10.0696C17.3983 10.7563 17.4788 11.4508 17.4865 12.153C17.4903 12.2378 17.496 12.3227 17.4999 12.3825ZM8.87452 10.4033C8.87643 10.0966 8.79591 9.81305 8.63679 9.55263C8.15366 8.75401 7.10688 8.67492 6.51831 9.39445C6.0371 9.9828 6.05435 10.8991 6.55857 11.4681C6.99377 11.9581 7.6782 12.0604 8.21117 11.6996C8.66746 11.3948 8.86493 10.9435 8.87452 10.4033ZM11.1195 10.2644C11.108 10.7351 11.2231 11.0901 11.432 11.3736C11.9132 12.0314 12.8143 12.0989 13.3856 11.5164C13.9416 10.9512 13.9704 9.96158 13.447 9.36551C12.9638 8.81574 12.22 8.73858 11.6678 9.19383C11.2921 9.5044 11.1272 9.92107 11.1195 10.2644Z" fill="black"/>
</svg>
