<svg width="20" height="20" viewBox="0 0 20 20" fill="none" xmlns="http://www.w3.org/2000/svg">
<path d="M12.2946 2.50316C12.9718 2.51404 13.6534 2.52708 14.3196 2.67279C15.4088 2.91202 16.2833 3.46875 16.8904 4.40607C17.2564 4.97368 17.4492 5.60653 17.5281 6.272C17.6333 7.17235 17.6246 8.07922 17.6267 8.98609C17.6289 10.0952 17.6311 11.2043 17.6136 12.3135C17.6026 12.9746 17.5895 13.6379 17.4295 14.2881C17.0438 15.8539 16.0729 16.8608 14.5015 17.2871C14.0018 17.4241 13.489 17.4763 12.974 17.4807C11.2097 17.4937 9.44767 17.5046 7.68343 17.498C7.01937 17.4959 6.35312 17.4741 5.70441 17.311C4.10673 16.9087 3.10078 15.9127 2.69533 14.3251C2.5726 13.8445 2.52658 13.3552 2.5222 12.8615C2.50905 11.1869 2.49809 9.51455 2.50028 7.83999C2.50247 7.1854 2.51781 6.52862 2.64931 5.88272C2.90573 4.62572 3.56321 3.65578 4.72038 3.05337C5.27705 2.76413 5.87755 2.60103 6.50215 2.57058C7.6396 2.51839 11.5012 2.49011 12.2946 2.50316ZM7.35031 3.87108C6.91198 3.87978 6.47585 3.90587 6.0463 4.00374C5.27924 4.17989 4.67655 4.58005 4.29082 5.27379C4.02345 5.75659 3.92263 6.28722 3.90072 6.82874C3.87223 7.59207 3.8525 8.35758 3.8525 9.12092C3.85469 10.5476 3.80867 11.9764 3.91825 13.4008C3.95332 13.8466 4.05194 14.2816 4.26452 14.6818C4.69189 15.4908 5.39758 15.917 6.28299 16.0388C6.8024 16.1106 7.32839 16.1367 7.85218 16.1454C8.99182 16.1628 10.1315 16.1584 11.2711 16.1562C12.0732 16.1562 12.8775 16.1584 13.6753 16.0649C14.1289 16.0127 14.5629 15.8887 14.9508 15.643C15.6565 15.1972 16.0291 14.536 16.1386 13.7314C16.2022 13.2638 16.2329 12.7875 16.2395 12.3156C16.257 11.1304 16.2526 9.94515 16.2548 8.75991C16.2548 7.977 16.257 7.19627 16.1649 6.41771C16.1189 6.01538 16.0115 5.62828 15.8165 5.27162C15.4286 4.56917 14.8149 4.16902 14.0391 3.99721C13.4408 3.86455 12.8293 3.86455 12.2201 3.85151C11.4486 3.84063 8.19846 3.85368 7.35031 3.87108Z" fill="black"/>
<path d="M13.9433 10.006C13.9521 12.1242 12.2032 13.8335 10.1124 13.8596C7.94271 13.8879 6.16532 12.1329 6.17189 10.0038C6.17847 7.87255 7.90765 6.1545 10.0423 6.1458C12.1879 6.13493 13.9543 7.87908 13.9433 10.006ZM12.578 10.0125C12.5955 8.65764 11.4865 7.53547 10.1256 7.50067C8.68348 7.4637 7.55918 8.61849 7.53288 9.94944C7.50658 11.3413 8.62868 12.4765 9.99625 12.5069C11.4252 12.5396 12.5889 11.3782 12.578 10.0125Z" fill="black"/>
<path d="M14.0965 6.89174C13.6012 6.89392 13.1914 6.48724 13.1914 5.99575C13.1914 5.50208 13.5968 5.09105 14.0899 5.08888C14.5852 5.0867 15.006 5.49338 15.006 5.97835C15.0082 6.48724 14.6049 6.89174 14.0965 6.89174Z" fill="black"/>
</svg>
