<svg width="101" height="21" viewBox="0 0 101 21" fill="none" xmlns="http://www.w3.org/2000/svg">
<path d="M31.7563 9.81207C32.7727 9.25221 33.214 8.46709 33.214 7.26128V5.6031C33.214 3.1866 31.7641 2.01195 28.7818 2.01195H22.7228C22.6125 2.01199 22.5068 2.05582 22.4288 2.13382C22.3508 2.21182 22.307 2.31759 22.307 2.42788V17.958C22.307 18.0683 22.3508 18.1741 22.4288 18.2521C22.5068 18.3301 22.6125 18.3739 22.7228 18.3739H29.2143C32.1073 18.3739 33.7667 16.9686 33.7667 14.5187V12.8125C33.7667 11.3517 33.0245 10.2606 31.7563 9.81207ZM25.6918 4.86802H28.4214C29.6587 4.86802 29.8295 5.40596 29.8295 5.98747V7.40534C29.8295 8.32475 29.4011 8.71731 28.3973 8.71731H27.8052C27.7506 8.71728 27.6966 8.728 27.6461 8.74888C27.5956 8.76975 27.5498 8.80036 27.5112 8.83896C27.4725 8.87756 27.4419 8.9234 27.421 8.97385C27.4001 9.0243 27.3893 9.07837 27.3893 9.13298V11.0847C27.3893 11.195 27.4331 11.3008 27.5111 11.3788C27.5891 11.4568 27.6949 11.5006 27.8052 11.5006H28.8781C29.9463 11.5006 30.3822 11.9156 30.3822 12.9325V14.1341C30.3822 15.1688 29.9357 15.5179 28.6137 15.5179H25.6918V4.86802Z" fill="#3F3F3F"/>
<path d="M0.100136 9.55974C0.445426 9.77008 1.17786 9.99495 2.1971 9.99495C2.69199 9.99495 3.16893 9.94081 3.5743 9.83808C3.59662 9.83248 3.61662 9.82001 3.63148 9.80243C3.64633 9.78485 3.65529 9.76305 3.65709 9.7401C3.72068 8.96757 3.93416 8.21481 4.28561 7.52391C4.2923 7.51073 4.29626 7.49634 4.29726 7.48159C4.29827 7.46685 4.29629 7.45205 4.29144 7.43808C4.2866 7.42412 4.27899 7.41128 4.26907 7.40032C4.25915 7.38936 4.24713 7.38051 4.23372 7.37431C3.83297 7.18866 3.41902 6.94332 3.03609 6.66537C2.44811 6.23835 1.94991 5.75468 1.59525 5.26718C1.58265 5.2498 1.56524 5.23648 1.54517 5.22886C1.52509 5.22124 1.50323 5.21966 1.48227 5.2243C1.46131 5.22895 1.44217 5.23962 1.42719 5.255C1.41221 5.27038 1.40206 5.28981 1.39798 5.31089C1.26778 5.97968 1.08517 6.67699 0.855417 7.38395C0.621306 8.1045 0.352732 8.78927 0.0577504 9.41924C0.046254 9.44377 0.0442223 9.47167 0.0520453 9.49761C0.0598684 9.52354 0.0769947 9.54566 0.100136 9.55974ZM4.49833 13.4191C4.51305 13.4013 4.52185 13.3794 4.52351 13.3564C4.52516 13.3334 4.51959 13.3105 4.50757 13.2909C4.10288 12.6294 3.83237 11.8947 3.71149 11.1288C3.70918 11.1142 3.70394 11.1002 3.69608 11.0876C3.68822 11.0751 3.6779 11.0643 3.66575 11.0558C3.6536 11.0474 3.63987 11.0415 3.62538 11.0385C3.61088 11.0355 3.59593 11.0354 3.58143 11.0383C3.14991 11.1236 2.67126 11.1688 2.1971 11.1688C1.47007 11.1688 0.78253 11.0703 0.209203 10.8836C0.201441 10.8672 0.189721 10.8529 0.175093 10.8421C0.160466 10.8313 0.143387 10.8243 0.12539 10.8217C0.107393 10.8192 0.0890392 10.8211 0.0719745 10.8274C0.0549098 10.8336 0.0396676 10.844 0.0276147 10.8577C0.0155618 10.8713 0.00707488 10.8877 0.00291486 10.9054C-0.00124517 10.9231 -0.000948213 10.9415 0.00377908 10.9591C0.00850637 10.9766 0.0175161 10.9927 0.0300007 11.0059C0.0424853 11.0192 0.0580545 11.0291 0.075312 11.0348C0.363164 11.6531 0.6254 12.325 0.854889 13.0317C1.08913 13.7519 1.27452 14.4639 1.40603 15.1471C1.41118 15.1738 1.42599 15.1976 1.44763 15.214C1.46927 15.2305 1.49621 15.2383 1.52329 15.2361C1.92747 15.2028 2.65238 14.9539 3.47553 14.3559C3.87654 14.0647 4.23015 13.7407 4.49833 13.4191ZM10.4959 1.43809C10.4793 1.40039 10.4539 1.36721 10.4218 1.34131C10.3898 1.3154 10.352 1.29752 10.3116 1.28915L5.05647 0.198215C5.00514 0.187645 4.95182 0.192832 4.90349 0.213096C4.85517 0.23336 4.81409 0.267755 4.78565 0.311771C4.75734 0.355884 4.74304 0.407535 4.74465 0.459928C4.74625 0.512321 4.76367 0.563001 4.79463 0.605301L5.58424 1.68105C5.13366 2.08166 4.66345 2.45963 4.17535 2.81357C3.56254 3.25869 2.94287 3.65508 2.33402 3.99139C2.31025 4.00447 2.29215 4.02588 2.28321 4.05149C2.27426 4.07711 2.2751 4.10513 2.28557 4.13017C2.44138 4.50358 2.90167 5.11612 3.72615 5.7152C4.12716 6.00661 4.54467 6.24258 4.9338 6.39799C4.94701 6.4034 4.96087 6.40617 4.9746 6.40617C4.99054 6.40613 5.00628 6.40265 5.02074 6.39597C5.03521 6.3893 5.04807 6.37958 5.05845 6.36749C5.59588 5.73932 6.2597 5.23149 7.0066 4.87713L7.2728 6.21537C7.28301 6.26688 7.30863 6.31407 7.34626 6.3507C7.38389 6.38733 7.43175 6.41166 7.48352 6.42048C7.53528 6.4293 7.58851 6.42218 7.63614 6.40008C7.68377 6.37798 7.72357 6.34193 7.75026 6.29671L10.4821 1.67484C10.503 1.63932 10.5152 1.59931 10.5176 1.55814C10.52 1.51697 10.5126 1.47582 10.4959 1.43809ZM7.31043 15.6741C6.58516 15.3749 5.92552 14.9365 5.36875 14.3838C5.3583 14.3733 5.34583 14.365 5.33211 14.3595C5.31838 14.354 5.30368 14.3513 5.28889 14.3516C5.27409 14.3519 5.25951 14.3552 5.24603 14.3613C5.23255 14.3674 5.22044 14.3762 5.21043 14.3871C4.9107 14.7094 4.54969 15.0275 4.16598 15.3062C3.57799 15.7334 2.9636 16.0575 2.39014 16.2438C2.36974 16.2504 2.35171 16.2629 2.33829 16.2796C2.32487 16.2963 2.31664 16.3166 2.31461 16.338C2.31251 16.3594 2.31672 16.3809 2.32671 16.3999C2.33671 16.4189 2.35206 16.4346 2.37086 16.4449C2.96664 16.7758 3.5739 17.1652 4.17562 17.6026C4.79819 18.0549 5.37377 18.5283 5.88596 19.0095C5.90588 19.0282 5.93208 19.0389 5.95946 19.0394C5.98683 19.0399 6.0134 19.0302 6.03398 19.0121C6.34626 18.7385 6.79111 18.1035 7.10352 17.1427C7.25563 16.6738 7.35083 16.204 7.37843 15.7838C7.37996 15.7607 7.37423 15.7377 7.36204 15.718C7.34984 15.6984 7.3318 15.683 7.31043 15.6741ZM19.0514 10.8262C18.7058 10.6157 17.9731 10.3909 16.9533 10.3909C16.4579 10.3909 15.9822 10.4452 15.5769 10.5478C15.5546 10.5534 15.5346 10.5658 15.5197 10.5834C15.5048 10.601 15.4959 10.6228 15.4941 10.6458C15.4333 11.4087 15.2159 12.1751 14.8659 12.8614C14.859 12.8746 14.8549 12.889 14.8538 12.9038C14.8527 12.9186 14.8546 12.9335 14.8595 12.9475C14.8643 12.9616 14.872 12.9745 14.882 12.9854C14.892 12.9964 14.9041 13.0052 14.9176 13.0113C15.3179 13.1966 15.7321 13.4418 16.115 13.72C16.703 14.1473 17.2013 14.6305 17.5558 15.1183C17.5685 15.1356 17.5859 15.1488 17.606 15.1563C17.626 15.1639 17.6478 15.1654 17.6687 15.1608C17.6896 15.1562 17.7088 15.1456 17.7238 15.1303C17.7388 15.115 17.749 15.0957 17.7532 15.0747C17.8834 14.4065 18.0661 13.7092 18.2958 13.0018C18.5302 12.281 18.7985 11.5962 19.0935 10.9668C19.1051 10.9423 19.1072 10.9143 19.0994 10.8884C19.0917 10.8624 19.0745 10.8402 19.0514 10.8262ZM14.6529 6.96669C14.6382 6.98443 14.6294 7.00633 14.6277 7.02932C14.6261 7.05231 14.6316 7.07524 14.6437 7.09491C15.0484 7.75623 15.3189 8.49081 15.4397 9.2567C15.4444 9.28654 15.4609 9.31269 15.4854 9.33011C15.4976 9.33857 15.5114 9.34449 15.526 9.3475C15.5405 9.35052 15.5555 9.35058 15.5701 9.34768C16.001 9.26238 16.4797 9.21722 16.9544 9.21722C17.6812 9.21722 18.3687 9.31572 18.942 9.50243C18.953 9.5059 18.9645 9.50772 18.9761 9.50784H18.9777C19.0385 9.51088 19.0891 9.45886 19.0891 9.39772C19.0892 9.3738 19.0814 9.35052 19.0669 9.33144C18.7828 8.71876 18.5236 8.0538 18.2963 7.35371C18.0625 6.63355 17.877 5.92171 17.7452 5.2384C17.7399 5.21181 17.7251 5.18808 17.7035 5.17169C17.6819 5.15529 17.6551 5.14736 17.6281 5.1494C17.2242 5.18267 16.4992 5.43144 15.6756 6.02972C15.2747 6.32101 14.9211 6.64517 14.6529 6.96669ZM11.8411 4.74416C12.5624 5.04086 13.2337 5.48703 13.7825 6.03474C13.8032 6.05524 13.8312 6.06673 13.8604 6.06669H13.8625C13.8773 6.06643 13.8919 6.06319 13.9054 6.05715C13.9189 6.05112 13.9311 6.04242 13.9412 6.03157C14.2407 5.70899 14.6017 5.39103 14.9854 5.11243C15.5736 4.68501 16.1876 4.36071 16.7612 4.17466C16.7815 4.16789 16.7994 4.15539 16.8127 4.13865C16.8261 4.12192 16.8343 4.10169 16.8363 4.08039C16.8384 4.0591 16.8343 4.03766 16.8244 4.01868C16.8145 3.9997 16.7994 3.98398 16.7808 3.97343C16.1847 3.6428 15.5777 3.2534 14.9757 2.81621C14.3537 2.3641 13.7781 1.8906 13.2654 1.40904C13.2455 1.39023 13.2193 1.37953 13.1919 1.37904C13.1645 1.37855 13.1379 1.38831 13.1174 1.4064C12.8051 1.68012 12.3602 2.31511 12.0481 3.27572C11.896 3.74447 11.8008 4.21428 11.7729 4.63457C11.7713 4.65767 11.7771 4.68069 11.7893 4.70036C11.8015 4.72002 11.8196 4.73535 11.8411 4.74416ZM15.4251 14.6704C15.0241 14.379 14.6065 14.1431 14.2177 13.9875C14.1963 13.979 14.1727 13.9774 14.1504 13.9829C14.128 13.9884 14.1079 14.0008 14.0929 14.0183C13.5553 14.6463 12.8915 15.1541 12.1448 15.5086L11.8786 14.1703C11.8684 14.1187 11.8428 14.0714 11.8052 14.0348C11.7676 13.9981 11.7197 13.9737 11.6679 13.9649C11.6161 13.9561 11.5628 13.9632 11.5152 13.9854C11.4675 14.0075 11.4277 14.0436 11.4011 14.0889L8.66927 18.7109C8.64829 18.7464 8.63607 18.7864 8.63365 18.8275C8.63122 18.8687 8.63865 18.9098 8.65532 18.9475C8.67199 18.9853 8.69742 19.0184 8.7295 19.0443C8.76157 19.0702 8.79937 19.0881 8.83974 19.0965L14.0949 20.1874C14.1127 20.191 14.1303 20.1928 14.1477 20.1928C14.29 20.1956 14.4094 20.0775 14.4094 19.9336C14.4094 19.8644 14.3821 19.8013 14.3377 19.7548L13.567 18.7044C14.0175 18.3038 14.4877 17.9258 14.9757 17.5718C15.5891 17.1264 16.2085 16.7303 16.8173 16.3942C16.841 16.381 16.859 16.3595 16.8679 16.3339C16.8768 16.3083 16.876 16.2802 16.8655 16.2552C16.7098 15.882 16.2495 15.2696 15.4251 14.6704Z" fill="#3F3F3F"/>
<path d="M39.6557 6.07397C38.4116 6.07397 36.898 6.27005 35.7996 6.57375C35.701 6.60105 35.6158 6.66379 35.5605 6.74997C35.5052 6.83614 35.4836 6.93969 35.4999 7.04078L35.7875 8.82414C35.7963 8.87921 35.8161 8.93194 35.8458 8.97918C35.8754 9.02641 35.9143 9.06718 35.9601 9.09905C36.0058 9.13101 36.0574 9.15344 36.1119 9.16501C36.1665 9.17658 36.2228 9.17705 36.2775 9.1664C37.2992 8.96728 38.3539 8.85768 39.2471 8.85768C41.0205 8.85768 41.3041 9.23189 41.3041 10.4339V11.4807H38.6705C36.1535 11.4807 35.0796 12.5186 35.0796 14.9514C35.0796 17.2793 36.2572 18.6144 38.31 18.6144C39.4976 18.6144 40.6868 18.2847 41.6859 17.6818L41.7913 18.0674C41.8153 18.1554 41.8675 18.2331 41.94 18.2885C42.0125 18.3439 42.1012 18.3739 42.1925 18.3738H44.1764C44.2867 18.3738 44.3924 18.33 44.4704 18.2521C44.5484 18.1741 44.5923 18.0683 44.5923 17.958V10.4817C44.5925 7.26842 43.2547 6.07397 39.6557 6.07397ZM41.3041 13.9521V15.3989C40.8969 15.6161 40.1593 15.9268 39.2712 15.9268C38.5054 15.9268 38.2723 15.6931 38.2723 14.9275C38.2723 14.1837 38.4167 13.9521 39.3196 13.9521H41.3041ZM61.0684 6.07397C59.7431 6.07397 57.9029 6.54905 56.4345 7.26472C55.985 6.47445 55.2164 6.07397 54.147 6.07397C52.8448 6.07397 51.0711 6.52278 49.5727 7.2263L49.3932 6.61323C49.368 6.52695 49.3154 6.45118 49.2435 6.39726C49.1716 6.34334 49.0841 6.31418 48.9942 6.31415H47.1747C47.0644 6.31419 46.9587 6.35801 46.8807 6.43598C46.8027 6.51395 46.7589 6.61968 46.7589 6.72995V17.9582C46.7589 18.0684 46.8027 18.1742 46.8807 18.2521C46.9587 18.3301 47.0644 18.3739 47.1747 18.374H49.6316C49.7418 18.374 49.8476 18.3302 49.9256 18.2522C50.0036 18.1742 50.0474 18.0684 50.0474 17.9582V10.1817C50.9327 9.73154 52.1771 9.26595 52.9211 9.26595C53.4745 9.26595 53.6801 9.47168 53.6801 10.0249V17.958C53.6801 18.0683 53.724 18.1741 53.802 18.2521C53.88 18.33 53.9858 18.3738 54.096 18.3738H56.5527C56.663 18.3738 56.7687 18.33 56.8467 18.252C56.9247 18.1741 56.9685 18.0683 56.9685 17.958V10.177C57.8546 9.68611 59.1716 9.26595 59.8422 9.26595C60.3956 9.26595 60.6012 9.47181 60.6012 10.0252V17.9582C60.6013 18.0685 60.6451 18.1742 60.7231 18.2522C60.8011 18.3302 60.9069 18.374 61.0172 18.374H63.4739C63.5842 18.374 63.69 18.3302 63.7679 18.2522C63.8459 18.1742 63.8897 18.0684 63.8897 17.9582V9.71292C63.8903 7.29813 62.9406 6.07397 61.0684 6.07397ZM72.7471 6.07397C71.5293 6.07397 70.2987 6.37502 69.4647 6.6873V2.13264C69.4647 1.90288 69.2786 1.71671 69.0489 1.71671H66.5922C66.482 1.71678 66.3763 1.76063 66.2983 1.83863C66.2204 1.91663 66.1767 2.02238 66.1767 2.13264V17.831C66.1768 17.9284 66.2109 18.0226 66.2733 18.0974C66.3356 18.1722 66.4221 18.2227 66.5179 18.2403C68.0335 18.5167 69.8241 18.6148 70.8969 18.6148C75.5127 18.6148 76.4587 16.6509 76.4587 13.7023V10.266C76.4582 7.48404 75.2094 6.07397 72.7471 6.07397ZM71.0406 15.7586C70.4183 15.7586 69.9007 15.7338 69.4644 15.6833V9.53889C70.1403 9.23611 71.0933 8.92991 71.8577 8.92991C72.7896 8.92991 73.1695 9.29593 73.1695 10.1934V13.7979C73.1695 15.0981 72.8402 15.7586 71.0406 15.7586ZM83.2367 6.07397C79.7869 6.07397 77.9633 7.73123 77.9633 10.8667V13.8222C77.9633 16.9574 79.7869 18.6144 83.2367 18.6144C86.6865 18.6144 88.5098 16.9574 88.5098 13.8222V10.8667C88.5099 7.73083 86.6865 6.07397 83.2367 6.07397ZM81.2521 10.7703C81.2521 9.48013 81.8456 8.92991 83.2367 8.92991C84.6276 8.92991 85.2211 9.48052 85.2211 10.7703V13.9179C85.2211 15.2081 84.6277 15.7583 83.2367 15.7583C81.8456 15.7583 81.2521 15.208 81.2521 13.9179V10.7703ZM95.1702 6.07397C91.7204 6.07397 89.8967 7.73123 89.8967 10.8667V13.8222C89.8967 16.9574 91.7204 18.6144 95.1702 18.6144C98.6198 18.6144 100.443 16.9574 100.443 13.8222V10.8667C100.443 7.73083 98.6198 6.07397 95.1702 6.07397ZM93.1855 10.7703C93.1855 9.48013 93.779 8.92991 95.1702 8.92991C96.5609 8.92991 97.1544 9.48052 97.1544 10.7703V13.9179C97.1544 15.2081 96.5609 15.7583 95.1702 15.7583C93.779 15.7583 93.1855 15.208 93.1855 13.9179V10.7703Z" fill="#3F3F3F"/>
</svg>
