<svg width="126" height="18" viewBox="0 0 126 18" fill="none" xmlns="http://www.w3.org/2000/svg">
<path fill-rule="evenodd" clip-rule="evenodd" d="M38.19 5.61301C38.19 2.95492 36.5589 1.3088 33.2158 1.3088H26.8397V17.743H33.6202C37.2868 17.743 39.0662 15.9485 39.0662 13.3174C39.0662 10.9966 37.8665 9.67434 35.44 9.26956C37.2868 8.8108 38.19 7.60994 38.19 5.61301ZM29.0908 8.35205V3.45416L32.9192 3.44067C34.9817 3.44067 35.9253 4.19626 35.9253 5.78841C35.9253 7.38057 35.0491 8.35205 32.9192 8.35205H29.0908ZM29.0908 15.4762V10.3625L33.6472 10.349C35.8849 10.349 36.815 11.2935 36.815 13.0475C36.815 14.6937 35.8444 15.4762 33.6876 15.4762H29.0908ZM44.2291 1.72708C44.1752 0.957989 43.5012 0.377799 42.7328 0.43177C42.6654 0.418277 42.598 0.418277 42.5306 0.43177C41.7622 0.485741 41.1826 1.16038 41.2365 1.92947C41.2365 2.75253 41.9105 3.42717 42.7328 3.42717C43.5551 3.42717 44.2291 2.75253 44.2291 1.92947V1.72708ZM43.7977 5.23521H41.6409V17.743H43.7977V5.23521ZM53.3417 15.4628C52.8969 15.5707 52.452 15.6247 51.9937 15.6382C50.6592 15.6382 50.0121 14.8961 50.0121 13.8031V7.23214H53.3417V5.23521H50.0121V2.57713H47.9227V5.23521H45.9007V7.23214H47.9227V13.8436C47.9227 16.1644 49.2168 17.743 51.8993 17.743C52.3846 17.743 52.8699 17.6756 53.3417 17.5406V15.4628ZM58.235 15.5302C58.9899 17.1628 60.3919 17.9859 62.2117 17.9859C65.7165 17.9859 67.4555 15.0175 67.469 11.4824C67.469 7.79884 65.7974 4.97885 62.4678 4.97885C60.5536 4.97885 59.0438 5.82889 58.2485 7.47502V0H56.0782V17.7295H58.235V15.5302ZM58.2485 10.9831C58.2485 8.20363 59.9605 6.97578 61.8882 6.97578C64.1124 6.97578 65.3121 8.48697 65.3391 11.4824C65.3391 14.3833 64.0854 15.989 61.659 15.989C59.8257 15.989 58.2485 14.7611 58.2485 11.9816V10.9831ZM71.8635 5.23521H69.7067V12.5618C69.7067 16.0025 71.3647 17.9994 74.236 17.9994C75.8806 18.0264 77.4039 17.1359 78.1857 15.6921V17.743H80.3426V5.23521H78.1857V12.1975C78.1857 14.7341 76.8108 16.0564 74.8157 16.0564C72.7667 16.0564 71.8635 15.058 71.8635 12.8047V5.23521ZM89.3608 17.9859C90.5066 17.9859 91.6525 17.824 92.4073 17.4192L92.3939 15.5032C91.4772 15.8271 90.5201 15.9755 89.5495 15.9485C86.2738 15.9485 84.9258 13.8976 84.9258 11.4689C84.9258 9.04018 86.2469 6.98927 89.4956 6.98927C90.4797 6.96229 91.4502 7.16468 92.3399 7.58296V5.58602C91.4098 5.14076 90.3853 4.93837 89.3608 4.96535C84.8989 4.96535 82.8229 7.66391 82.8229 11.4419C82.8229 15.2874 84.9124 17.9859 89.3608 17.9859ZM94.8607 0V17.743H97.0176V11.8872L102.517 17.743H105.443L99.3227 11.3744L105.2 5.23521H102.396L97.0176 11.0911V0H94.8607ZM105.834 11.4419C105.834 15.2874 107.883 17.9859 112.56 17.9859C113.841 17.9859 115.418 17.797 116.429 17.2438V15.2469C115.216 15.6921 113.922 15.9215 112.628 15.9215C109.675 15.9215 108.3 14.5452 108.004 12.4134H117.13V11.4419C117.13 7.65042 115.593 4.96535 111.738 4.96535C107.937 4.96535 105.834 7.66391 105.834 11.4419ZM111.63 6.9353C113.787 6.9353 114.838 8.27109 114.96 10.5919H107.977V10.5784C108.206 8.40602 109.352 6.92181 111.63 6.9353ZM125.987 15.4628C125.542 15.5707 125.097 15.6247 124.638 15.6382C123.304 15.6382 122.657 14.8961 122.67 13.8031V7.23214H126V5.23521H122.67V2.57713H120.567V5.23521H118.545V7.23214H120.567V13.8436C120.567 16.1644 121.862 17.743 124.544 17.743C125.029 17.743 125.515 17.6756 125.987 17.5406V15.4628ZM0 2.34775C0 2.02392 0.256124 1.78105 0.57965 1.78105L17.1603 1.79454C17.1738 1.79454 17.1907 1.79792 17.2075 1.80129C17.2244 1.80466 17.2412 1.80804 17.2547 1.80804C17.5647 1.84851 17.7804 2.14536 17.7265 2.45569L15.3135 17.2708C15.2731 17.5406 15.0305 17.743 14.7474 17.743H3.18133C2.80389 17.743 2.49384 17.4597 2.42644 17.0954L0.0134802 2.4422C0 2.41521 0 2.37473 0 2.34775ZM11.0915 12.2364H7.38445L6.40039 7.00122H11.9947L11.0915 12.2364Z" fill="#3F3F3F"/>
</svg>
