<svg width="95" height="21" viewBox="0 0 95 21" fill="none" xmlns="http://www.w3.org/2000/svg">
<path fill-rule="evenodd" clip-rule="evenodd" d="M27.3319 5.56221C27.308 5.48661 27.2606 5.42059 27.1966 5.37374C27.1327 5.32689 27.0554 5.30164 26.9761 5.30165H23.4949C23.4156 5.30164 23.3384 5.32689 23.2744 5.37374C23.2104 5.42059 23.163 5.48661 23.1391 5.56221L18.7469 19.4922C18.7113 19.6057 18.7315 19.7291 18.8018 19.8253C18.8365 19.8725 18.8818 19.9108 18.9341 19.9373C18.9863 19.9637 19.0441 19.9775 19.1026 19.9776H21.4994C21.6647 19.9776 21.8104 19.8686 21.8571 19.7099L24.8819 9.46533C24.8819 9.46533 24.961 9.20951 25.2348 9.20951C25.5134 9.20951 25.5811 9.47563 25.5811 9.47599L26.9845 14.3335H25.0994C25.0181 14.3334 24.9389 14.36 24.8741 14.4091C24.8092 14.4582 24.7622 14.5272 24.7402 14.6055L24.1992 16.5289C24.1835 16.5843 24.1809 16.6427 24.1916 16.6993C24.2022 16.756 24.2259 16.8094 24.2607 16.8553C24.2955 16.9012 24.3405 16.9385 24.3921 16.9641C24.4438 16.9897 24.5007 17.003 24.5583 17.0028H27.7691L28.6143 19.7155C28.638 19.7914 28.6853 19.8578 28.7494 19.9049C28.8134 19.952 28.8909 19.9775 28.9704 19.9774H31.3681C31.4267 19.9774 31.4845 19.9635 31.5367 19.937C31.589 19.9105 31.6343 19.8721 31.6689 19.8248C31.7036 19.7776 31.7266 19.7228 31.7362 19.665C31.7458 19.6072 31.7416 19.548 31.724 19.4921L27.3319 5.56221ZM37.7743 17.8308C37.7664 17.7795 37.7479 17.7303 37.72 17.6865C37.6921 17.6426 37.6554 17.6051 37.6122 17.5762C37.569 17.5473 37.5203 17.5277 37.4691 17.5188C37.4179 17.5099 37.3654 17.5118 37.315 17.5244C36.9259 17.621 36.5532 17.6744 36.2656 17.6744C35.7201 17.6744 35.4771 17.4379 35.4771 16.9076V11.5706H37.6172C37.7162 11.5706 37.8111 11.5313 37.8811 11.4613C37.951 11.3914 37.9904 11.2965 37.9905 11.1975V9.53284C37.9905 9.32676 37.8235 9.16001 37.6174 9.16001H35.4771V6.58998C35.4771 6.53663 35.4657 6.48389 35.4436 6.43533C35.4215 6.38677 35.3892 6.34352 35.349 6.3085C35.3087 6.27347 35.2615 6.24749 35.2103 6.2323C35.1592 6.21711 35.1054 6.21308 35.0525 6.22047L32.8489 6.52745C32.7597 6.53985 32.678 6.58409 32.6189 6.652C32.5598 6.71991 32.5272 6.80691 32.5271 6.89696V9.15989H31.3268C31.2279 9.15989 31.1331 9.19916 31.0631 9.26907C30.9931 9.33899 30.9538 9.43382 30.9537 9.53272V11.1974C30.9537 11.2964 30.9931 11.3913 31.063 11.4612C31.133 11.5312 31.2279 11.5705 31.3268 11.5705H32.5271V17.2524C32.5271 19.2037 33.5528 20.1928 35.5756 20.1928C36.1512 20.1928 37.1288 20.0601 37.7681 19.8379C37.8503 19.8094 37.9199 19.7531 37.9649 19.6787C38.0098 19.6043 38.0274 19.5165 38.0144 19.4305L37.7743 17.8308ZM41.8536 5.02973H39.65C39.601 5.02973 39.5525 5.03939 39.5072 5.05815C39.4619 5.07691 39.4208 5.10441 39.3861 5.13908C39.3515 5.17375 39.324 5.2149 39.3053 5.26019C39.2865 5.30548 39.2769 5.35402 39.2769 5.40303V19.6045C39.2769 19.7034 39.3162 19.7983 39.3862 19.8683C39.4562 19.9383 39.5511 19.9776 39.65 19.9776H41.8536C41.9525 19.9776 42.0474 19.9383 42.1174 19.8683C42.1874 19.7983 42.2267 19.7034 42.2267 19.6045V5.4028C42.2267 5.19648 42.0597 5.02973 41.8536 5.02973ZM48.9983 16.0113V17.3089C48.633 17.5035 47.9712 17.7823 47.1751 17.7823C46.4882 17.7823 46.2788 17.5729 46.2788 16.8857C46.2788 16.2187 46.4083 16.0112 47.2182 16.0112L48.9983 16.0113ZM47.5198 8.94434C46.4042 8.94434 45.0466 9.12021 44.0612 9.39273C43.9727 9.41707 43.8962 9.47329 43.8466 9.55057C43.797 9.62785 43.7777 9.72074 43.7924 9.81139L44.0503 11.4111C44.0582 11.4604 44.076 11.5077 44.1026 11.55C44.1292 11.5923 44.164 11.6288 44.205 11.6574C44.2877 11.7155 44.3905 11.7373 44.4898 11.7176C45.4061 11.5395 46.3522 11.4412 47.1534 11.4412C48.744 11.4412 48.9983 11.7769 48.9983 12.8547V13.7945H46.6362C44.3786 13.7945 43.4153 14.7256 43.4153 16.9077C43.4153 18.9955 44.4713 20.1929 46.3128 20.1929C47.3778 20.1929 48.4446 19.8973 49.3411 19.3567L49.4353 19.7026C49.4568 19.7815 49.5037 19.8512 49.5688 19.9009C49.6339 19.9506 49.7134 19.9776 49.7953 19.9776H51.5749C51.6739 19.9776 51.7687 19.9383 51.8387 19.8683C51.9087 19.7983 51.948 19.7034 51.948 19.6045V12.898C51.948 10.0158 50.7479 8.94434 47.5198 8.94434ZM57.4698 13.2822C56.1025 12.9298 56.1025 12.9156 56.1025 12.1654C56.1025 11.6616 56.1525 11.4196 57.2791 11.4196C58.0507 11.4196 59.1894 11.5546 59.9206 11.6797C60.0213 11.6969 60.1243 11.6722 60.206 11.611C60.2465 11.5809 60.2805 11.543 60.3059 11.4994C60.3313 11.4558 60.3476 11.4076 60.3538 11.3576L60.5616 9.67816C60.5729 9.58668 60.55 9.49426 60.4972 9.41866C60.4445 9.34307 60.3657 9.28967 60.2759 9.26873C59.4303 9.07165 58.2538 8.94422 57.2789 8.94422C53.8901 8.94422 53.1957 10.2233 53.1957 12.1434C53.1957 14.2547 53.5879 14.9642 56.1852 15.5969C57.8949 16.0085 57.8949 16.3143 57.8949 16.8213C57.8949 17.4871 57.8381 17.7175 56.7186 17.7175C55.8173 17.7175 54.7743 17.5772 53.8567 17.3326C53.8069 17.3193 53.7549 17.3165 53.704 17.3243C53.6531 17.3321 53.6044 17.3504 53.5609 17.3779C53.5174 17.4055 53.4801 17.4418 53.4513 17.4845C53.4225 17.5272 53.4028 17.5754 53.3936 17.626L53.1022 19.2196C53.0859 19.3085 53.1025 19.4003 53.1488 19.4779C53.1952 19.5556 53.2681 19.6137 53.3541 19.6416C54.3549 19.9663 55.7915 20.1928 56.8479 20.1928C60.1292 20.1928 60.8016 18.8192 60.8016 16.7565C60.8016 14.479 60.3972 14.057 57.4698 13.2822ZM65.9844 13.2822C64.6171 12.9298 64.6171 12.9156 64.6171 12.1654C64.6171 11.6616 64.6671 11.4196 65.7936 11.4196C66.5654 11.4196 67.704 11.5546 68.4353 11.6797C68.536 11.6969 68.639 11.6722 68.7207 11.611C68.7612 11.5809 68.7952 11.543 68.8206 11.4994C68.8459 11.4559 68.8622 11.4076 68.8684 11.3576L69.0761 9.67816C69.0875 9.58671 69.0647 9.49428 69.012 9.41868C68.9593 9.34309 68.8805 9.28967 68.7907 9.26873C67.9449 9.07165 66.7685 8.94422 65.7936 8.94422C62.4049 8.94422 61.7105 10.2233 61.7105 12.1434C61.7105 14.2547 62.1025 14.9642 64.7 15.5969C66.4097 16.0085 66.4097 16.3143 66.4097 16.8213C66.4097 17.4871 66.3529 17.7175 65.2332 17.7175C64.3319 17.7175 63.2889 17.5772 62.3714 17.3326C62.3216 17.3193 62.2696 17.3165 62.2187 17.3243C62.1678 17.3322 62.1191 17.3505 62.0756 17.378C62.0321 17.4055 61.9947 17.4418 61.9659 17.4845C61.937 17.5271 61.9174 17.5754 61.9082 17.626L61.6168 19.2196C61.6005 19.3085 61.617 19.4003 61.6634 19.478C61.7097 19.5556 61.7827 19.6137 61.8687 19.6416C62.8695 19.9663 64.3061 20.1928 65.3625 20.1928C68.6438 20.1928 69.3162 18.8192 69.3162 16.7565C69.3162 14.479 68.9118 14.057 65.9844 13.2822ZM73.2341 9.16001H71.0306C70.9317 9.16001 70.8368 9.19928 70.7668 9.26919C70.6969 9.3391 70.6575 9.43393 70.6575 9.53284V19.6045C70.6575 19.7034 70.6968 19.7983 70.7668 19.8683C70.8367 19.9383 70.9316 19.9776 71.0306 19.9776H73.2341C73.3331 19.9776 73.428 19.9383 73.4979 19.8683C73.5679 19.7983 73.6072 19.7034 73.6072 19.6045V9.5326C73.6072 9.32652 73.4402 9.16001 73.2341 9.16001ZM80.4342 16.0113V17.3089C80.0689 17.5035 79.4072 17.7823 78.6109 17.7823C77.924 17.7823 77.7147 17.5729 77.7147 16.8857C77.7147 16.2187 77.8443 16.0112 78.6539 16.0112L80.4342 16.0113ZM78.9558 8.94434C77.8402 8.94434 76.4826 9.12021 75.4972 9.39273C75.4086 9.41707 75.3322 9.47329 75.2826 9.55057C75.2329 9.62785 75.2136 9.72074 75.2283 9.81139L75.4862 11.4111C75.5024 11.5108 75.5584 11.5996 75.6411 11.6574C75.7237 11.7155 75.8264 11.7373 75.9259 11.7176C76.8421 11.5395 77.7882 11.4412 78.5895 11.4412C80.1801 11.4412 80.4343 11.7769 80.4343 12.8547V13.7945H78.0722C75.8148 13.7945 74.8514 14.7256 74.8514 16.9077C74.8514 18.9955 75.9074 20.1929 77.7489 20.1929C78.8139 20.1929 79.8807 19.8973 80.777 19.3567L80.8714 19.7026C80.8929 19.7815 80.9398 19.8512 81.0049 19.9009C81.0699 19.9506 81.1495 19.9776 81.2314 19.9776H83.011C83.1099 19.9776 83.2048 19.9383 83.2748 19.8683C83.3448 19.7983 83.3841 19.7034 83.3841 19.6045V12.898C83.3841 10.0158 82.1839 8.94434 78.9558 8.94434ZM91.5342 8.94434C90.3661 8.94434 88.7754 9.34701 87.4314 9.97779L87.2706 9.4279C87.2479 9.35054 87.2007 9.28262 87.1362 9.2343C87.0717 9.18598 86.9932 9.15988 86.9126 9.15989H85.2805C85.1816 9.15989 85.0868 9.19916 85.0168 9.26907C84.9469 9.33899 84.9075 9.43382 84.9075 9.53272V19.6044C84.9075 19.7033 84.9468 19.7982 85.0168 19.8682C85.0867 19.9381 85.1816 19.9774 85.2805 19.9774H87.4841C87.5831 19.9774 87.678 19.9381 87.7479 19.8682C87.8179 19.7982 87.8572 19.7033 87.8572 19.6044V12.6291C88.6509 12.2252 89.767 11.8077 90.4349 11.8077C90.9312 11.8077 91.1157 11.9922 91.1157 12.4884V19.6044C91.1157 19.6534 91.1253 19.7019 91.144 19.7472C91.1627 19.7925 91.1902 19.8337 91.2249 19.8683C91.2595 19.903 91.3007 19.9305 91.3459 19.9493C91.3912 19.968 91.4397 19.9777 91.4888 19.9777H93.6923C93.7913 19.9777 93.8862 19.9384 93.9561 19.8684C94.0261 19.7984 94.0654 19.7036 94.0654 19.6046V12.2084C94.0654 10.0425 93.2136 8.94434 91.5342 8.94434ZM73.1157 5.02925H70.9121C70.8132 5.02925 70.7183 5.06856 70.6483 5.13852C70.5784 5.20849 70.539 5.30338 70.539 5.40232V7.35057C70.539 7.44951 70.5784 7.5444 70.6483 7.61436C70.7183 7.68433 70.8132 7.72363 70.9121 7.72363H73.1157C73.2147 7.72363 73.3095 7.68433 73.3795 7.61436C73.4495 7.5444 73.4888 7.44951 73.4888 7.35057V5.40232C73.4888 5.30338 73.4495 5.20849 73.3795 5.13852C73.3095 5.06856 73.2147 5.02925 73.1157 5.02925Z" fill="#3F3F3F"/>
<path fill-rule="evenodd" clip-rule="evenodd" d="M17.9972 5.09273C17.9267 5.03902 17.8405 5.0099 17.7518 5.00983C17.7033 5.00983 17.6544 5.01883 17.6078 5.0366C16.7353 5.37023 15.8494 5.62356 15.0406 5.81199C14.8758 5.85048 14.7425 5.97306 14.6872 6.11992C14.098 7.73394 12.5935 9.27062 11.015 10.8804C10.9517 10.9405 10.863 11.0199 10.7185 11.0199C10.5744 11.0199 10.4864 10.9429 10.4219 10.8804C8.84367 9.27062 7.33908 7.7395 6.74987 6.12525C6.69456 5.97839 6.56121 5.85581 6.39658 5.81732C5.58744 5.62877 4.69918 5.36762 3.82774 5.03411C3.78161 5.01648 3.73264 5.00741 3.68325 5.00734C3.59531 5.00711 3.50977 5.03601 3.43999 5.08954C3.38589 5.13089 3.34315 5.18527 3.31575 5.24761C3.28835 5.30995 3.27719 5.37821 3.2833 5.44602C3.41713 6.78812 3.94724 8.10014 4.90431 9.47516C5.80394 10.7678 6.97738 11.9642 8.11187 13.1213C10.2022 15.2533 12.177 17.2671 12.3503 19.6022C12.3578 19.7039 12.4035 19.7989 12.4782 19.8683C12.5529 19.9376 12.651 19.9762 12.753 19.9761H15.2088C15.2635 19.9761 15.3176 19.9649 15.3679 19.9433C15.4182 19.9217 15.4636 19.8901 15.5013 19.8505C15.539 19.8108 15.5683 19.764 15.5874 19.7127C15.6064 19.6614 15.6149 19.6068 15.6123 19.5521C15.535 17.9909 14.9474 16.4275 13.8161 14.773C13.5772 14.425 13.3247 14.0865 13.0593 13.7582C12.9516 13.6236 12.9968 13.4564 13.0795 13.3721C13.1608 13.2886 13.2429 13.2054 13.3252 13.121C14.4598 11.9639 15.633 10.7675 16.5329 9.4748C17.4898 8.09978 18.0201 6.79546 18.1538 5.4536C18.1672 5.31883 18.1059 5.17576 17.9972 5.09273ZM21.5751 0.398947C21.5274 0.335154 21.4654 0.283333 21.3942 0.24757C21.323 0.211808 21.2444 0.193082 21.1647 0.192871C21.0818 0.192871 20.9999 0.213716 20.9281 0.252917C17.9179 1.90069 14.4284 2.77237 10.8367 2.7732C7.24505 2.77213 3.7555 1.90069 0.74549 0.252799C0.672832 0.213544 0.591561 0.192952 0.508977 0.192871C0.347906 0.192871 0.194652 0.269853 0.0986023 0.398473C-0.0438742 0.587968 -0.0482562 0.905846 0.194179 1.0951C1.70185 2.21904 3.36372 3.09664 5.13384 3.69663C6.96862 4.31912 8.88702 4.63522 10.836 4.63605H10.8374C12.7865 4.63522 14.705 4.31912 16.5396 3.69663C18.3099 3.09641 19.9716 2.21905 21.4812 1.09368C21.722 0.905609 21.7174 0.587849 21.5751 0.398947ZM8.08309 14.9375C8.02505 14.8767 7.93978 14.8147 7.79648 14.8147C7.61314 14.8147 7.5043 14.9414 7.4632 15.0041C6.43022 16.576 5.89667 18.0597 5.82289 19.5506C5.81756 19.6605 5.85806 19.7697 5.93421 19.8502C5.97225 19.8898 6.01785 19.9213 6.06831 19.9429C6.11877 19.9644 6.17306 19.9756 6.22793 19.9758H8.67976C8.89057 19.9758 9.06822 19.8108 9.08386 19.6003C9.13715 18.8819 9.36099 18.1616 9.76817 17.4046C9.90934 17.1428 9.79967 16.8968 9.71843 16.7917C9.31433 16.2662 8.81939 15.7058 8.08309 14.9375ZM10.7209 6.29579C11.4904 6.29579 11.9368 6.2496 12.0937 6.2496C12.2836 6.2496 12.4652 6.40522 12.4652 6.62314C12.4652 6.68686 12.4501 6.7321 12.4352 6.77237C12.3331 7.04524 11.8679 8.02706 11.0019 8.86937C10.9048 8.96376 10.7946 8.98141 10.7188 8.98141H10.7177C10.6422 8.98141 10.5321 8.96364 10.4351 8.86937C9.56884 8.02706 9.10352 7.04524 9.00166 6.77237C8.98662 6.7321 8.97158 6.68686 8.97158 6.62314C8.97158 6.40522 9.15326 6.2496 9.34323 6.2496C9.50015 6.2496 9.94641 6.29579 10.7159 6.29579H10.7209Z" fill="#3F3F3F"/>
</svg>
