<svg width="117" height="14" viewBox="0 0 117 14" fill="none" xmlns="http://www.w3.org/2000/svg">
<path d="M30.8387 13.1624C30.0111 13.6845 28.6998 13.9148 27.3289 13.9148C22.9732 13.9148 20.511 11.4052 20.511 7.41045C20.511 3.5495 22.9732 0.846838 27.2899 0.846838C28.5806 0.846838 29.8713 1.07937 30.8204 1.72433V3.40472C29.8713 2.82557 28.8236 2.52723 27.2899 2.52723C24.1836 2.52723 22.3267 4.50158 22.3267 7.41045C22.3267 10.3193 24.2432 12.2564 27.3908 12.2564C28.5852 12.2668 29.7647 12.0019 30.8296 11.4842L30.8387 13.1624ZM32.1065 8.88025C32.1065 5.98453 33.8809 3.88075 36.907 3.88075C39.9331 3.88075 41.6685 5.98453 41.6685 8.88025C41.6685 11.776 39.9124 13.9258 36.907 13.9258C33.9015 13.9258 32.1065 11.776 32.1065 8.88025ZM33.8006 8.88025C33.8006 10.7142 34.7497 12.3748 36.907 12.3748C39.0642 12.3748 39.9743 10.7142 39.9743 8.88025C39.9743 7.04629 39.0573 5.42513 36.9093 5.42513C34.7612 5.42513 33.8052 7.04629 33.8052 8.88025H33.8006ZM52.2644 13.7262H50.529V7.89746C50.529 6.16003 49.8023 5.38784 48.1494 5.38784C46.5446 5.38784 45.4259 6.41011 45.4259 8.36033V13.7262H43.6905V4.0738H45.4259V5.65767C45.7347 5.10952 46.1956 4.65356 46.7578 4.34003C47.3201 4.02651 47.9619 3.86758 48.6125 3.88075C50.9325 3.88075 52.2644 5.41636 52.2644 8.07076V13.7262ZM57.0947 4.0738H59.6967V5.60941H57.0947V13.7262H55.4006V5.60941H53.766V4.0738H55.4006V3.01204C55.4006 1.21758 56.4505 6.20162e-05 58.6101 6.20162e-05C59.0054 -0.00204723 59.3991 0.0496572 59.7792 0.153622V1.68923C59.4203 1.62391 59.0557 1.59159 58.6903 1.5927C57.622 1.5927 57.0855 2.19159 57.0855 3.0603L57.0947 4.0738ZM64.2679 13.7832C62.6128 13.7832 61.5651 13.0308 61.5651 11.2539V0.039549H63.3005V11.0608C63.3005 11.9383 63.9057 12.2388 64.6531 12.2388C64.8215 12.2415 64.9899 12.2349 65.1574 12.2191V13.7064C64.8653 13.7664 64.5666 13.7921 64.2679 13.7832ZM66.6269 4.0738H68.3623V9.90252C68.3623 11.6399 69.0891 12.4121 70.742 12.4121C72.3467 12.4121 73.4654 11.3899 73.4654 9.43964V4.0738H75.2055V13.7262H73.47V12.1423C73.1613 12.6905 72.7004 13.1464 72.1381 13.4599C71.5759 13.7735 70.9341 13.9324 70.2835 13.9192C67.9635 13.9192 66.6315 12.3836 66.6315 9.73141L66.6269 4.0738ZM82.6446 13.9192C78.8712 13.9192 77.2183 11.8352 77.2183 8.87366C77.2183 5.95821 78.9124 3.87417 81.9798 3.87417C85.0861 3.87417 86.3355 5.94066 86.3355 8.87366V9.62611H78.9743C79.2173 11.267 80.3269 12.3288 82.7065 12.3288C83.753 12.3279 84.7912 12.1511 85.7739 11.8067V13.3423C84.944 13.7635 83.674 13.9192 82.6446 13.9192ZM78.9537 8.21555H84.5818C84.4809 6.42108 83.6327 5.39662 81.8996 5.39662C80.0633 5.38565 79.1348 6.52419 78.9537 8.20458V8.21555ZM96.9681 13.7262H95.2327V7.89746C95.2327 6.16003 94.506 5.38784 92.8531 5.38784C91.2484 5.38784 90.1296 6.41011 90.1296 8.36033V13.7262H88.3942V4.0738H90.1296V5.65767C90.4384 5.10952 90.8993 4.65356 91.4615 4.34003C92.0238 4.02651 92.6656 3.86758 93.3162 3.88075C95.6362 3.88075 96.9681 5.41636 96.9681 8.07076V13.7262ZM106.512 13.4739C105.907 13.7832 104.978 13.9126 104.05 13.9126C100.46 13.9126 98.7769 11.8286 98.7769 8.86708C98.7769 5.95163 100.45 3.86759 104.05 3.86759C104.876 3.84164 105.698 4.00011 106.45 4.33047V5.86607C105.738 5.54512 104.958 5.38667 104.171 5.4032C101.549 5.4032 100.48 6.98706 100.48 8.85831C100.48 10.7296 101.569 12.3354 104.21 12.3354C104.99 12.3551 105.767 12.2376 106.503 11.9887L106.512 13.4739ZM113.309 13.9192C109.536 13.9192 107.883 11.8352 107.883 8.87366C107.883 5.95821 109.577 3.87417 112.644 3.87417C115.751 3.87417 117 5.94066 117 8.87366V9.62611H109.636C109.88 11.267 110.989 12.3288 113.369 12.3288C114.415 12.3279 115.453 12.1511 116.436 11.8067V13.3423C115.608 13.7635 114.338 13.9192 113.309 13.9192ZM109.618 8.21555H115.246C115.145 6.42108 114.297 5.39662 112.564 5.39662C110.728 5.38565 109.799 6.52419 109.618 8.20458V8.21555Z" fill="#3F3F3F"/>
<path d="M0.522413 10.8656C0.373401 11.0981 0.206048 11.3679 0.0639135 11.5829C0.0027571 11.6818 -0.015413 11.7997 0.0133085 11.9113C0.04203 12.0229 0.11535 12.1192 0.217511 12.1796L3.19776 13.9346C3.24955 13.9652 3.30718 13.9856 3.36731 13.9947C3.42743 14.0037 3.48883 14.0012 3.54794 13.9873C3.60705 13.9735 3.66268 13.9485 3.71158 13.9138C3.76049 13.8791 3.80169 13.8355 3.83278 13.7854C3.95199 13.5946 4.10559 13.3467 4.27294 13.0812C5.45358 11.2166 6.64109 11.4447 8.78228 12.4231L11.7373 13.7679C11.7927 13.7931 11.8528 13.8074 11.9141 13.81C11.9754 13.8126 12.0366 13.8034 12.0941 13.7829C12.1516 13.7625 12.2043 13.7312 12.2489 13.6909C12.2935 13.6506 12.3293 13.6022 12.354 13.5485L13.7731 10.4773C13.8212 10.3718 13.8242 10.2525 13.7813 10.145C13.7385 10.0375 13.6531 9.95041 13.5438 9.90252C12.9202 9.62172 11.68 9.06233 10.5636 8.5468C6.5471 6.67995 3.13357 6.8006 0.522413 10.8656Z" fill="#3F3F3F"/>
<path d="M13.8851 3.89611C14.0341 3.66358 14.2015 3.39375 14.3436 3.17876C14.4048 3.07987 14.4229 2.96196 14.3942 2.85039C14.3655 2.73881 14.2922 2.64247 14.19 2.58207L11.2098 0.827091C11.1576 0.793464 11.0987 0.77047 11.0369 0.75954C10.975 0.74861 10.9115 0.749978 10.8502 0.763559C10.7889 0.777139 10.7312 0.802642 10.6806 0.83848C10.6301 0.874319 10.5878 0.919726 10.5564 0.971877C10.4372 1.16273 10.2836 1.41062 10.1162 1.67606C8.9356 3.54073 7.74808 3.31258 5.60689 2.33418L2.66103 0.996008C2.60563 0.970778 2.54551 0.956442 2.48422 0.95385C2.42293 0.951258 2.36172 0.960463 2.30421 0.980919C2.24671 1.00138 2.19408 1.03267 2.14944 1.07294C2.1048 1.11321 2.06907 1.16165 2.04435 1.21538L0.625289 4.28659C0.5771 4.39202 0.574125 4.51135 0.617007 4.61886C0.659889 4.72637 0.745194 4.81346 0.854539 4.86135C1.4781 5.14215 2.71834 5.70155 3.83479 6.21707C7.86041 8.08174 11.2739 7.95669 13.8851 3.89611Z" fill="#3F3F3F"/>
</svg>
