<svg width="148" height="22" viewBox="0 0 148 22" fill="none" xmlns="http://www.w3.org/2000/svg">
<path d="M0 3.41973L8.45121 2.25804V10.4132H0.000778091L0 3.41973ZM8.45121 11.4568V19.5198L0.00116713 18.3598L0.00097261 11.4572L8.45121 11.4568ZM9.3857 2.12985L20.631 0.583984V10.4132H9.3857V2.12985ZM20.631 11.4568V21.1925L9.3857 19.6478V11.4568H20.631Z" fill="#3F3F3F"/>
<path d="M39.7225 16.9801H37.7689V9.42658C37.7689 8.80742 37.8076 8.05131 37.8848 7.15514H37.8521C37.7302 7.66518 37.6226 8.03127 37.5292 8.25458L33.9866 16.9801H32.629L29.0778 8.31994C28.9786 8.06512 28.8736 7.67685 28.7635 7.15612H28.7308C28.7753 7.62297 28.7971 8.38511 28.7971 9.44312V16.9801H26.9758V5.30796H29.7487L32.8695 13.0815C33.1066 13.6783 33.2612 14.1237 33.3326 14.4163H33.3738C33.5781 13.8029 33.7434 13.3468 33.8705 13.0484L37.0493 5.30796H39.7231L39.7225 16.9801ZM43.3896 6.89487C43.0753 6.89487 42.8055 6.79489 42.5827 6.59394C42.359 6.3932 42.2474 6.13779 42.2474 5.82869C42.2474 5.5196 42.359 5.26166 42.5827 5.05508C42.8064 4.84927 43.0753 4.74579 43.3896 4.74579C43.7148 4.74579 43.9915 4.84927 44.2175 5.05508C44.4435 5.26166 44.5571 5.51862 44.5571 5.82869C44.5571 6.12126 44.4435 6.37258 44.2175 6.5815C43.9905 6.7908 43.7148 6.89487 43.3896 6.89487ZM44.341 16.9801H42.4213V8.6448H44.3412L44.341 16.9801ZM52.9253 16.5975C52.247 16.9826 51.4434 17.1752 50.5163 17.1752C49.2581 17.1752 48.2427 16.7885 47.4701 16.0156C46.6978 15.2428 46.3111 14.2402 46.3111 13.0079C46.3111 11.635 46.7264 10.5324 47.5569 9.69911C48.3875 8.86616 49.4976 8.44949 50.8886 8.44949C51.6611 8.44949 52.3427 8.58255 52.9329 8.84885V10.6067C52.3419 10.173 51.7132 9.95549 51.046 9.95549C50.2348 9.95549 49.57 10.2259 49.0514 10.7655C48.5328 11.3053 48.2729 12.012 48.2729 12.8856C48.2729 13.7485 48.5166 14.4295 49.0051 14.9286C49.4933 15.428 50.1489 15.6776 50.9711 15.6776C51.6611 15.6776 52.3116 15.4363 52.9243 14.9535L52.9253 16.5975ZM59.7536 10.4439C59.5215 10.2646 59.1879 10.1755 58.7518 10.1755C58.1834 10.1755 57.7086 10.4274 57.3279 10.9324C56.947 11.4366 56.7564 12.1234 56.7564 12.9914V16.9801H54.8357V8.6448H56.7564V10.3622H56.7891C56.9766 9.77614 57.2649 9.31901 57.6539 8.99085C58.043 8.66289 58.4777 8.49832 58.9576 8.49832C59.3056 8.49832 59.5704 8.55045 59.7528 8.65296L59.7536 10.4439ZM64.8857 17.1752C63.5779 17.1752 62.5339 16.7859 61.7523 16.0073C60.9715 15.2288 60.5807 14.1963 60.5807 12.9105C60.5807 11.5101 60.9875 10.4167 61.8019 9.62986C62.6164 8.84301 63.7123 8.44949 65.0925 8.44949C66.4172 8.44949 67.4485 8.83231 68.1881 9.59757C68.9278 10.363 69.2969 11.4234 69.2969 12.7798C69.2969 14.1097 68.8985 15.1743 68.1007 15.9742C67.304 16.7752 66.2324 17.1752 64.8857 17.1752ZM64.9765 9.95549C64.2261 9.95549 63.6326 10.2134 63.1972 10.7283C62.7609 11.244 62.5432 11.9548 62.5432 12.8607C62.5432 13.7343 62.7642 14.4221 63.2056 14.9238C63.6468 15.4255 64.2377 15.6766 64.9773 15.6766C65.734 15.6766 66.3146 15.4295 66.7198 14.9362C67.1248 14.442 67.3283 13.7393 67.3283 12.8276C67.3283 11.911 67.1258 11.2028 66.7198 10.7034C66.3139 10.2051 65.733 9.95549 64.9765 9.95549ZM70.7299 16.7198V14.9701C71.4477 15.5074 72.2394 15.7758 73.105 15.7758C74.2644 15.7758 74.8433 15.4395 74.8433 14.7666C74.8433 14.5766 74.7939 14.4155 74.6947 14.2822C74.5955 14.1492 74.4618 14.0311 74.2928 13.9286C74.1237 13.8261 73.9255 13.7335 73.697 13.6518C73.4674 13.5699 73.2126 13.4781 72.9311 13.3748C72.6091 13.2511 72.2953 13.1069 71.9916 12.9434C71.7124 12.7912 71.4813 12.6195 71.2964 12.4269C71.1142 12.2389 70.9721 12.0159 70.8787 11.7714C70.7846 11.5276 70.7383 11.2423 70.7383 10.9168C70.7383 10.5151 70.835 10.1613 71.0281 9.85472C71.2217 9.54796 71.4804 9.29022 71.8058 9.08189C72.1318 8.87277 72.5008 8.7158 72.9152 8.60998C73.3344 8.50348 73.7653 8.45015 74.1978 8.45125C74.9812 8.45125 75.6821 8.56776 76.3 8.8008V10.4531C75.704 10.0514 75.0199 9.85044 74.2474 9.85044C74.0045 9.85044 73.7851 9.87534 73.5894 9.9232C73.3935 9.97202 73.2262 10.0399 73.0883 10.1267C72.9506 10.2134 72.843 10.3175 72.7656 10.4398C72.6888 10.56 72.6486 10.6999 72.6496 10.8425C72.6496 11.0217 72.6884 11.1738 72.7656 11.2987C72.843 11.4234 72.9572 11.5333 73.1093 11.6284C73.2606 11.7235 73.4431 11.8103 73.6557 11.8887C73.8683 11.9672 74.1121 12.0532 74.3887 12.145C74.7229 12.2779 75.0502 12.4274 75.3695 12.593C75.6595 12.7449 75.9065 12.9169 76.1108 13.1095C76.3119 13.2975 76.4724 13.5248 76.5823 13.7773C76.6926 14.0294 76.748 14.3295 76.748 14.6765C76.748 15.0998 76.6488 15.4683 76.4496 15.7834C76.2512 16.0983 75.9857 16.3586 75.6554 16.5644C75.3241 16.771 74.9417 16.9239 74.5089 17.0238C74.0751 17.1248 73.6188 17.1744 73.1389 17.1744C72.211 17.1752 71.4082 17.0238 70.7299 16.7198ZM82.3349 17.1752C81.0271 17.1752 79.9824 16.7859 79.2014 16.0073C78.4205 15.2288 78.0305 14.1963 78.0305 12.9105C78.0305 11.5101 78.4375 10.4167 79.2519 9.62986C80.0654 8.84301 81.1623 8.44949 82.5417 8.44949C83.8664 8.44949 84.8976 8.83231 85.6373 9.59757C86.3769 10.363 86.7467 11.4234 86.7467 12.7798C86.7467 14.1097 86.3483 15.1743 85.5508 15.9742C84.7532 16.7752 83.6806 17.1752 82.3349 17.1752ZM82.4258 9.95549C81.6751 9.95549 81.0816 10.2134 80.6455 10.7283C80.2092 11.244 79.9915 11.9548 79.9915 12.8607C79.9915 13.7343 80.2127 14.4221 80.6538 14.9238C81.0952 15.4255 81.686 15.6766 82.4258 15.6766C83.1813 15.6766 83.7621 15.4295 84.1681 14.9362C84.5741 14.442 84.7766 13.7393 84.7766 12.8276C84.7766 11.911 84.5741 11.2028 84.1681 10.7034C83.7621 10.2051 83.1813 9.95549 82.4258 9.95549ZM93.5011 6.17903C93.2424 6.03275 92.9465 5.95922 92.6152 5.95922C91.6823 5.95922 91.2166 6.47743 91.2166 7.51384V8.64538H93.1867V10.1267H91.225V16.9801H89.3045V10.1267H87.8562V8.64538H89.3045V7.29403C89.3045 6.41479 89.597 5.7221 90.1819 5.21459C90.7669 4.70688 91.4983 4.45323 92.3758 4.45323C92.8506 4.45323 93.2254 4.50458 93.5011 4.60787V6.17903ZM99.0385 16.8908C98.6637 17.0752 98.1694 17.1678 97.5567 17.1678C95.9126 17.1678 95.0905 16.3917 95.0905 14.8403V10.1274H93.6752V8.64635H95.0905V6.71708L97.0112 6.18V8.64635H99.0393V10.1274H97.0112V14.2945C97.0112 14.788 97.1019 15.1409 97.2843 15.3525C97.4668 15.5642 97.7701 15.67 98.1947 15.67C98.5199 15.67 98.8016 15.5782 99.0385 15.393V16.8908ZM115.329 16.9801H113.168L112.101 14.0088H107.433L106.406 16.9801H104.254L108.699 5.30796H110.917L115.329 16.9801ZM111.579 12.4302L109.932 7.77431C109.883 7.62219 109.83 7.37845 109.775 7.04193H109.743C109.693 7.35122 109.637 7.59573 109.577 7.77431L107.946 12.4302H111.579ZM123.01 9.43475L118.433 15.5064H122.993V16.9801H115.742V16.2718L120.419 10.1183H116.189V8.6446H123.01V9.43475ZM132.024 16.9801H130.104V15.661H130.071C129.514 16.6702 128.647 17.1752 127.472 17.1752C125.469 17.1752 124.467 15.9925 124.467 13.6261V8.6446H126.388V13.431C126.388 14.9288 126.975 15.6776 128.152 15.6776C128.72 15.6776 129.187 15.4718 129.554 15.0594C129.921 14.647 130.105 14.1072 130.105 13.4394V8.6446H132.025L132.024 16.9801ZM139.449 10.4439C139.217 10.2646 138.883 10.1755 138.447 10.1755C137.879 10.1755 137.404 10.4274 137.023 10.9324C136.642 11.4366 136.452 12.1234 136.452 12.9914V16.9801H134.532V8.6448H136.452V10.3622H136.484C136.672 9.77614 136.96 9.31901 137.349 8.99085C137.738 8.66289 138.173 8.49832 138.653 8.49832C139 8.49832 139.266 8.55045 139.447 8.65296L139.449 10.4439ZM147.999 13.3252H142.222C142.243 14.0955 142.485 14.6898 142.946 15.108C143.407 15.5254 144.04 15.7346 144.846 15.7346C145.751 15.7346 146.581 15.4684 147.337 14.937V16.4586C146.565 16.9363 145.543 17.1752 144.274 17.1752C143.027 17.1752 142.049 16.7966 141.34 16.0396C140.63 15.2825 140.276 14.2179 140.276 12.8451C140.276 11.5482 140.667 10.491 141.448 9.6744C142.229 8.8578 143.199 8.44949 144.358 8.44949C145.517 8.44949 146.413 8.81578 147.048 9.54796C147.682 10.2803 148 11.2977 148 12.6004L147.999 13.3252ZM146.145 11.9904C146.137 11.3119 145.977 10.7843 145.657 10.4076C145.337 10.0308 144.895 9.84227 144.332 9.84227C143.781 9.84227 143.313 10.0407 142.929 10.4365C142.546 10.8324 142.31 11.3508 142.222 11.9912L146.145 11.9904Z" fill="#3F3F3F"/>
</svg>
