<svg width="109" height="22" viewBox="0 0 109 22" fill="none" xmlns="http://www.w3.org/2000/svg">
<path d="M24.5468 13.676C25.9502 13.795 26.8848 14.2709 26.8848 15.8165C26.8848 17.362 25.5401 18.2545 23.6707 18.2545C22.5017 18.314 21.3327 17.957 20.4552 17.124L21.2155 16.3519C21.8586 17.005 22.7347 17.362 23.6707 17.3025C24.9555 17.3025 25.7744 16.8265 25.7744 15.876C25.7744 15.162 25.4242 14.7455 24.4882 14.686L23.202 14.567C21.6828 14.448 20.8653 13.7355 20.8653 12.4265C20.8653 11 22.0343 10.1075 23.7293 10.1075C23.9773 10.0937 24.2253 10.1006 24.4719 10.1297C24.7185 10.1587 24.9637 10.2086 25.2022 10.2791C25.6802 10.4209 26.1309 10.6445 26.5347 10.9405L25.7744 11.714C25.1899 11.238 24.4296 11 23.6707 11.0595C22.5017 11.0595 21.9172 11.5355 21.9172 12.367C21.9172 13.081 22.2673 13.4975 23.2606 13.557L24.5468 13.676ZM33.7818 10.0481C35.8855 10.0481 36.9374 11 36.996 12.724V18.1355H35.8269V17.362C35.2424 17.957 34.3663 18.2545 33.5475 18.195C32.437 18.195 31.7939 18.0165 31.3266 17.481C30.9178 17.0645 30.7421 16.4709 30.7421 15.876C30.7421 14.448 31.6768 13.557 33.4303 13.557H35.7683V12.7835C35.7683 11.6545 35.2424 11.0595 33.7818 11.0595C33.5924 11.0346 33.4003 11.036 33.2123 11.065C33.0243 11.0927 32.8403 11.1467 32.6659 11.2241C32.4915 11.303 32.328 11.404 32.1809 11.5272C32.0337 11.6503 31.9043 11.7928 31.7939 11.9519L31.0337 11.1785C31.7354 10.286 32.4956 10.0481 33.7818 10.0481ZM35.7683 15.3405V14.448H33.5475C32.3784 14.448 31.7939 14.924 31.7939 15.876C31.7939 16.8265 32.3784 17.243 33.6061 17.243C33.7614 17.261 33.9194 17.2624 34.0748 17.2486C34.2314 17.2333 34.3854 17.2029 34.5366 17.1572C34.6865 17.1116 34.8323 17.0507 34.9699 16.9746C35.1089 16.8999 35.2383 16.8099 35.3596 16.7075C35.7098 16.3519 35.8269 15.8165 35.7683 15.3405ZM41.4377 11.119C40.736 11.0595 40.0343 11.4165 39.6256 12.0114C39.2168 12.6645 39.0411 13.3785 39.0997 14.1519C39.0411 14.924 39.2168 15.638 39.6256 16.2925C40.0343 16.886 40.736 17.243 41.4377 17.1835C42.1394 17.1835 42.8397 16.886 43.2498 16.2925L44.0088 17.0645C43.3657 17.838 42.431 18.314 41.4377 18.2545C39.5084 18.2545 37.9892 16.886 37.9892 14.1519C37.9892 11.4165 39.4498 10.0481 41.4377 10.0481C41.6816 10.0397 41.9255 10.0591 42.1653 10.1075C42.4051 10.1546 42.6394 10.2307 42.8615 10.3345C43.3081 10.5406 43.701 10.85 44.0088 11.238L43.2498 12.0114C42.8397 11.4165 42.1394 11.119 41.4377 11.119ZM51.2559 10.167L48.4505 13.0215L51.7232 18.1355H50.3212L47.6916 13.795L46.2882 15.2215V18.1355H45.1192V6.6H46.2882V13.676L49.8539 10.167H51.2559ZM56.6337 10.0481C56.8653 10.0328 57.0997 10.0439 57.3299 10.0799C57.5588 10.1172 57.785 10.1795 58.0016 10.2667C58.2183 10.3538 58.424 10.4645 58.6175 10.5987C58.8096 10.7316 58.9867 10.8865 59.1461 11.0595C59.9064 11.8925 60.0822 12.7835 60.0822 14.2709C60.0822 15.757 59.9064 16.7075 59.1461 17.481C58.503 18.195 57.5683 18.5519 56.6337 18.4925C56.4021 18.4952 56.1718 18.4745 55.9443 18.4316C55.7167 18.3901 55.4933 18.325 55.2794 18.2379C55.0641 18.1521 54.8583 18.0442 54.6635 17.9169C54.4687 17.7896 54.2874 17.6443 54.1199 17.481C53.3609 16.7075 53.1852 15.757 53.1852 14.2709C53.1852 12.843 53.3609 11.833 54.1199 11.0595C54.763 10.3455 55.6976 10.0481 56.6337 10.0481ZM58.0943 14.2709C58.0943 13.438 58.0357 12.6645 57.6269 12.248C57.101 11.7735 56.2822 11.7735 55.7562 12.248C55.3475 12.6645 55.2889 13.438 55.2889 14.2709C55.2889 15.1025 55.3475 15.876 55.7562 16.2925C56.2822 16.767 57.101 16.767 57.6269 16.2925C58.0357 15.876 58.0943 15.162 58.0943 14.2709ZM67.738 10.1075L64.7569 18.433H63.1791L60.1394 10.1075H62.303L63.9394 15.2215L65.5758 10.1075H67.738ZM71.1865 10.0481C73.466 10.0481 74.7508 11.714 74.6923 13.9735V14.924H69.6074V15.162C69.6306 15.3862 69.6932 15.6034 69.7954 15.804C69.8963 16.0033 70.0339 16.1818 70.2015 16.3298C70.3677 16.4779 70.5611 16.5927 70.7696 16.6674C70.9781 16.7421 71.1988 16.7767 71.4195 16.767C72.1212 16.8265 72.8229 16.5291 73.2902 16.0545L74.5178 17.243C73.7576 18.1355 72.5885 18.6114 71.4195 18.5519C69.4916 18.5519 67.6209 17.6595 67.6209 14.2709C67.6209 11.595 69.0815 10.1075 71.1865 10.1075V10.0481ZM69.6074 13.4975H72.6471L72.4714 12.605C72.2384 12.0709 71.7125 11.7735 71.1279 11.7735C70.5434 11.7735 70.0175 12.0709 69.7832 12.605L69.6074 13.4975ZM77.4391 10.9405C77.9663 10.3455 78.7253 10.1075 79.4855 10.1075C79.6586 10.0992 79.833 10.1103 80.0046 10.1394C80.1749 10.1698 80.3439 10.2182 80.5047 10.2847C80.6655 10.3511 80.8194 10.4355 80.9625 10.5351C81.1055 10.6361 81.2363 10.7523 81.3549 10.881L79.8357 12.4265C79.6027 12.1291 79.1926 11.9519 78.7838 11.9519H78.6667C77.9078 12.0709 77.4391 12.724 77.4391 13.4975V18.4925H75.3939V10.167H77.3818V10.9405H77.4391ZM81.8236 9.09748C81.8304 8.79308 81.8971 8.49283 82.0184 8.21472C82.1397 7.93522 82.3141 7.68478 82.5321 7.47447C82.7487 7.26553 83.0049 7.10088 83.2842 6.99157C83.5635 6.88226 83.8619 6.82968 84.1603 6.83799H85.3293V8.62151H84.4532C84.0445 8.68101 83.8687 9.03799 83.8687 9.39497V10.286H85.3879V11.8925H83.8687V18.433H81.8236V9.09748ZM94.3831 10.0799C94.6134 10.1172 94.8395 10.1795 95.0562 10.2667C95.2728 10.3538 95.4786 10.4645 95.672 10.5987C95.8641 10.7316 96.0413 10.8865 96.2007 11.0595C96.9609 11.8925 97.1353 12.7835 97.1353 14.2709C97.1353 15.757 96.9609 16.7075 96.2007 17.481C95.5576 18.195 94.6229 18.5519 93.6869 18.4925C93.4566 18.4952 93.225 18.4745 92.9974 18.4316C92.7713 18.3901 92.5478 18.325 92.3325 18.2379C92.1186 18.1521 91.9115 18.0442 91.7181 17.9169C91.5232 17.7896 91.3406 17.6443 91.1744 17.481C90.4141 16.7075 90.2397 15.757 90.2397 14.2709C90.2397 12.843 90.4141 11.833 91.1744 11.0595C91.8175 10.3455 92.7522 10.0481 93.6869 10.0481C93.9198 10.0328 94.1528 10.0439 94.3831 10.0799ZM95.1488 14.2709C95.1488 13.438 95.0902 12.6645 94.6815 12.248C94.1556 11.7735 93.3367 11.7735 92.8108 12.248C92.402 12.6645 92.3434 13.438 92.3434 14.2709C92.3434 15.1025 92.402 15.876 92.8108 16.2925C93.3367 16.767 94.1556 16.767 94.6815 16.2925C95.0902 15.876 95.1488 15.162 95.1488 14.2709ZM106.779 10.167H109L106.486 18.4925H104.734L103.039 13.2595L101.344 18.4925H99.6492L97.1353 10.167H99.2976L100.642 15.281L102.279 10.1075H103.739L105.434 15.2215L106.779 10.1075V10.167ZM88.5448 16.1735C88.6606 16.5291 88.9535 16.7075 89.3037 16.648H90.064V18.433H88.602C88.3104 18.4177 88.0243 18.343 87.7614 18.2157C87.497 18.0884 87.2613 17.9086 87.0651 17.6872C86.8695 17.4662 86.719 17.208 86.6223 16.9275C86.5242 16.6481 86.4833 16.3506 86.4983 16.0545V6.89748H88.5448V16.1735ZM30.8007 10.3455L29.7488 11.357H28.6384V15.9355C28.6384 16.7075 28.93 17.124 29.6902 17.124H30.2747V18.1355H29.4559C28.1125 18.1355 27.4694 17.1835 27.4694 15.995V7.72906H28.6384V10.3455H30.8007Z" fill="#3F3F3F"/>
<path d="M15.196 19.6215V14.2709H17.534V22H0V14.2709H2.33805V19.6215H15.196Z" fill="#3F3F3F"/>
<path d="M13.4424 15.4595L13.9098 13.676L4.50034 11.714L4.09159 13.676L13.4424 15.4595ZM5.37642 9.03799L14.1441 13.2L14.9616 11.4165L6.19529 7.25447L5.37642 9.03799ZM7.83165 4.63799L15.196 10.9405L16.4236 9.45447L9.00068 3.15195L7.77306 4.63799H7.83165ZM12.5663 0L10.9872 1.18855L16.7737 9.09749L18.3515 7.90755L12.5663 0ZM4.09159 17.838H13.4424V16.0545H4.09159V17.838Z" fill="#3F3F3F"/>
</svg>
