<svg width="96" height="14" viewBox="0 0 96 14" fill="none" xmlns="http://www.w3.org/2000/svg">
<path d="M16.0518 5.09699C15.6977 6.09953 13.4668 7.14654 7.98685 5.90316L8.70007 9.1505C14.1797 10.1497 17.4277 9.32776 19.283 7.37358C20.6569 5.92516 20.9262 4.05174 19.7971 2.6181C18.6029 1.10048 15.9574 0 12.6168 0C7.83835 0 4.43309 1.38917 2.54211 6.60208L0 13.6105H4.44733L6.97695 6.52229C8.01486 3.60715 10.196 3.12451 12.6168 3.12451C15.1555 3.12451 16.3808 4.17313 16.0518 5.09699ZM60.0869 8.17285L59.9147 8.09867C60.9101 7.70064 61.9902 7.48517 63.0637 7.48517C63.7146 7.48517 65.1635 7.59595 65.7739 7.94646C65.9228 8.03011 66.0589 8.16209 65.9857 8.32586C65.7157 8.93503 61.7489 8.90099 60.0869 8.17285ZM68.2109 6.53401C67.1601 5.97012 65.4265 5.52071 63.7319 5.45135C60.2162 5.30636 56.2075 6.50944 55.4093 9.35361C54.9477 10.9896 56.5279 13.1992 60.6425 13.826C62.7012 14.1431 65.9721 14.063 68.3265 13.2824L69.2055 10.854C64.4314 12.4999 58.192 12.0221 58.4006 9.55656C60.7104 11.0437 64.0804 10.9024 66.5758 10.4925C70.8985 9.78455 70.8356 7.941 68.2109 6.53401ZM75.4986 8.17285L75.3284 8.09867C76.3223 7.70064 77.4035 7.48517 78.4752 7.48517C79.1287 7.48517 80.5747 7.59595 81.1858 7.94646C81.3342 8.03011 81.4697 8.16209 81.3967 8.32586C81.1277 8.93503 77.1621 8.90099 75.4986 8.17285ZM83.6223 6.53401C82.5726 5.97012 80.8382 5.52071 79.1433 5.45135C75.6292 5.30636 71.6207 6.50944 70.821 9.35361C70.3605 10.9896 71.9415 13.1992 76.0541 13.826C78.1124 14.1431 81.3852 14.063 83.7383 13.2824L84.6188 10.854C79.8444 12.4999 73.6054 12.0221 73.8138 9.55656C76.124 11.0437 79.4934 10.9024 81.9882 10.4925C86.3096 9.78455 86.2486 7.941 83.6223 6.53401ZM86.8684 8.62161L85.1044 13.6123H89.176L90.5333 9.77171C90.867 8.79775 91.1497 8.06896 92.3369 8.06896H95.1976L96 5.76974H90.7302C88.9677 5.76958 87.5467 6.64656 86.8684 8.62161ZM18.6656 13.6123H22.8812L25.7301 5.76958H21.5149L18.6656 13.6123ZM46.0177 9.39214C46.4099 8.31318 47.5947 7.81367 48.6324 7.81367C49.661 7.81367 50.6458 8.42188 50.2646 9.47242L48.7593 13.6122H52.8314L54.3585 9.40691C55.1507 7.22329 53.4348 5.41458 49.59 5.41458C45.31 5.41458 42.8844 6.81772 41.9494 9.38781L40.4156 13.6125H44.4848L46.0177 9.39214ZM33.4595 7.89347C35.1045 7.96315 36.4303 8.79325 36.1941 9.87254C35.9675 10.9128 34.3639 11.621 32.7001 11.5494C31.0546 11.4809 29.7303 10.6471 29.9644 9.56844C30.1931 8.53041 31.7954 7.82074 33.4595 7.89347ZM34.033 5.4552C29.7927 5.27473 26.0148 7.0934 25.5067 9.41912C25.0057 11.7076 27.8699 13.8066 32.1266 13.9871C36.3651 14.1682 40.1447 12.3498 40.6536 10.0235C41.1531 7.73548 38.2888 5.63439 34.033 5.4552Z" fill="#3F3F3F"/>
</svg>
