<svg width="18" height="18" viewBox="0 0 18 18" fill="none" xmlns="http://www.w3.org/2000/svg">
<path d="M9.75 11.0438C9.75 7.188 12.669 3.1545 17.25 2.25L17.988 3.8445C16.3268 4.47075 14.8658 6.651 14.703 8.154C16.5712 8.448 18 10.0642 18 12.0157C18 14.4022 16.062 15.75 14.1007 15.75C11.8395 15.75 9.75 14.0213 9.75 11.0438ZM0 11.0438C0 7.188 2.919 3.1545 7.5 2.25L8.238 3.8445C6.57675 4.47075 5.11575 6.651 4.953 8.154C6.82125 8.448 8.25 10.0642 8.25 12.0157C8.25 14.4022 6.312 15.75 4.35075 15.75C2.0895 15.75 0 14.0213 0 11.0438Z" fill="black"/>
</svg>
