<svg viewBox="0 0 20 20" xmlns="http://www.w3.org/2000/svg">
<path d="M12.2705 3.36661C12.5076 3.34142 12.586 3.33337 12.7888 3.33337C12.9091 3.33337 13.0157 3.3629 13.0552 3.36659C13.6476 3.44411 14.2184 3.63605 14.6421 4.06422C14.9796 4.40749 15.2848 4.38904 15.6582 4.23401C15.6653 4.23032 15.6689 4.23032 15.6761 4.22663C16.1429 4.03469 16.6132 3.83906 17.0799 3.64712C16.8394 4.38534 16.3726 4.96485 15.73 5.40779C15.7407 5.42624 15.7479 5.44839 15.7587 5.46684C16.3367 5.30444 16.9148 5.14203 17.5 4.97962C17.0871 5.58496 16.6096 6.1091 16.0387 6.54465C15.9418 6.61848 15.9023 6.6923 15.9059 6.8178C15.9454 8.1872 15.6977 9.50125 15.1842 10.7636C14.3333 12.8528 12.987 14.5175 11.0123 15.5584C8.39852 16.9352 5.70578 17.0127 2.9879 15.8832C2.53552 15.695 2.10827 15.4366 1.66666 15.2114C1.67025 15.193 1.67744 15.1708 1.68103 15.1524C3.42233 15.3074 4.99489 14.8681 6.42025 13.7608C4.92668 13.6205 3.92857 12.8602 3.3972 11.4686C3.64493 11.4686 3.87471 11.4797 4.10449 11.4649C4.33069 11.4502 4.55329 11.4132 4.77589 11.3874C4.77589 11.369 4.77589 11.3542 4.7723 11.3357C4.03269 11.1475 3.41874 10.7562 2.94841 10.1435C2.47808 9.53077 2.24112 8.83315 2.24471 8.03218C3.00226 8.3533 3.3613 8.44558 3.65211 8.40129C2.00775 7.15369 2.01852 5.10511 2.71504 3.96825C4.47789 6.09434 6.70748 7.27181 9.43972 7.46743C9.42895 7.38623 9.42536 7.33086 9.41818 7.27919C9.16326 5.76952 9.91364 4.2783 11.2744 3.6545C11.6047 3.50317 11.8445 3.41187 12.2705 3.36661Z"/>
</svg>
